<?xml version="1.0" encoding="utf-8"?>
<!-- Generator: Adobe Illustrator 23.0.2, SVG Export Plug-In . SVG Version: 6.00 Build 0)  -->
<svg version="1.1" id="Слой_1" xmlns="http://www.w3.org/2000/svg" xmlns:xlink="http://www.w3.org/1999/xlink" x="0px" y="0px"
	 width="141.7px" height="69.1px" viewBox="0 0 141.7 69.1" style="enable-background:new 0 0 141.7 69.1;" xml:space="preserve">
<style type="text/css">
	.st0{fill-rule:evenodd;clip-rule:evenodd;fill:#143141;}
	.st1{fill:#143141;}
</style>
<g>
	<path class="st0" d="M73.5,59.6c-2.8-0.2-5.9-0.7-8.3-1.3c-0.4-0.2-2.4-0.9-2.8-1.1c-8.7-3.9-14.6-12.8-14.6-22.8
		c0-14,11.3-25.3,25.2-25.3c13.7,0,25,11.1,25.2,25h9.1C107.2,15.4,92,0.2,73,0.2S38.7,15.7,38.7,34.6c0,13,7.4,24.3,18,30.2
		c2,1.1,4.8,2.2,5.7,2.4c3,0.9,6.7,1.5,10.2,1.7c1.1,0,5,0.2,6.3,0.2l0,0h62.8V60h-63C77.8,59.8,74.1,59.8,73.5,59.6z M78.7,45.4
		L78.7,45.4c-0.7,0-4.1,0-4.8,0c-1.1,0-2.6-0.2-3.7-0.4s-2.2-0.7-2.6-0.9c-3.5-1.7-5.7-5.4-5.7-9.6c0-6.1,4.8-10.9,10.9-10.9
		c5.9,0,10.7,4.8,10.9,10.4h8.7c-0.2-10.7-8.9-19.3-19.6-19.3c-10.9,0-19.6,8.7-19.6,19.6c0,7.6,4.3,14.3,10.9,17.4
		c1.1,0.7,2.8,1.1,3.3,1.3c1.7,0.4,4.1,0.9,6.1,0.9c0.7,0,4.3,0,5,0l0,0h63v-8.7H78.7V45.4z M32.8,68.9h-9.1V9.1H10.2V0h22.6V68.9z
		 M0,13.7v8.9h10v46.3h8.9V13.7H0z"/>
	<path class="st1" d="M125.2,0.7c-3.3,0-6.1,2.6-6.1,5.9s2.8,6.1,6.1,6.1c3.5,0,6.1-2.8,6.1-6.1S128.7,0.7,125.2,0.7z M125.2,11.5
		c-2.8,0-5-2.2-5-5s2.4-5,5-5c2.8,0,5,2.2,5,5S127.8,11.5,125.2,11.5z"/>
	<path class="st1" d="M127.4,8c0-0.7,0-1.3-0.9-1.5c0.9-0.4,1.1-0.9,1.1-1.3c0-1.5-1.3-1.7-2-1.7H123v5.9h1.1V7h0.9
		c1.3,0,1.3,0.7,1.3,1.1c0,1.1,0,1.3,0.2,1.3h1.1C127.4,9.1,127.6,9.1,127.4,8z M125.4,6.1h-1.3v-2h1.1c0.9,0,1.3,0.2,1.3,0.9
		S126.3,6.1,125.4,6.1z"/>
</g>
</svg>
